<svg version="1.1" xmlns="http://www.w3.org/2000/svg" width="1000" height="400"><defs><clipPath id="OmgJLErRWFDp"><path fill="none" stroke="none" d="M 49.5 27.5 L 970.5 27.5 L 970.5 355.5 L 49.5 355.5 L 49.5 27.5 Z"/></clipPath><clipPath id="WnFsSVxclkCd"><path fill="none" stroke="none" d="M 49.5 27.5 L 970.5 27.5 L 970.5 355.5 L 49.5 355.5 L 49.5 27.5 Z"/></clipPath><clipPath id="GgzBtMCgKrHx"><path fill="none" stroke="none" d="M 49.5 27.5 L 970.5 27.5 L 970.5 355.5 L 49.5 355.5 L 49.5 27.5 Z"/></clipPath><clipPath id="PQdTaVgXWXNL"><path fill="none" stroke="none" d="M 49.5 27.5 L 970.5 27.5 L 970.5 355.5 L 49.5 355.5 L 49.5 27.5 Z"/></clipPath></defs><path fill="none" stroke="#e5e5e5" paint-order="fill" d="M 49.5 27.5 L 970.5 27.5 L 970.5 355.5 L 49.5 355.5 L 49.5 27.5 Z" stroke-linejoin="bevel" stroke-miterlimit="10"/><path fill="none" stroke="#e5e5e5" paint-order="fill" d="M 177.5 355.5 L 177.5 27.5 M 305.5 355.5 L 305.5 27.5 M 433.5 355.5 L 433.5 27.5 M 561.5 355.5 L 561.5 27.5 M 689.5 355.5 L 689.5 27.5 M 817.5 355.5 L 817.5 27.5 M 944.5 355.5 L 944.5 27.5" stroke-linejoin="bevel" stroke-miterlimit="10" clip-path="url(#OmgJLErRWFDp)"/><path fill="none" stroke="#e5e5e5" paint-order="fill" d="M 49.5 340.5 L 970.5 340.5 M 49.5 297.5 L 970.5 297.5 M 49.5 254.5 L 970.5 254.5 M 49.5 211.5 L 970.5 211.5 M 49.5 167.5 L 970.5 167.5 M 49.5 124.5 L 970.5 124.5 M 49.5 81.5 L 970.5 81.5 M 49.5 38.5 L 970.5 38.5" stroke-linejoin="bevel" stroke-miterlimit="10" clip-path="url(#WnFsSVxclkCd)"/><path fill="none" stroke="#1f77b4" paint-order="fill" d="M 49.5 340.5909118652344 L 62.29166793823242 340.5909118652344 L 75.08333587646484 340.5909118652344 L 87.875 340.5909118652344 L 100.66666412353516 340.5909118652344 L 113.45833587646484 340.5909118652344 L 126.25 340.5909118652344 L 139.0416717529297 340.5909118652344 L 151.8333282470703 340.5909118652344 L 164.625 286.0137023925781 L 177.4166717529297 153.83819580078125 L 190.2083282470703 70.74919891357422 L 203 42.40909194946289 L 215.7916717529297 70.74919891357422 L 228.5833282470703 153.83819580078125 L 241.375 286.0137023925781 L 254.1666717529297 340.5909118652344 L 266.9583435058594 340.5909118652344 L 279.75 340.5909118652344 L 292.5416564941406 340.5909118652344 L 305.3333435058594 340.5909118652344 L 318.125 340.5909118652344 L 330.9166564941406 340.5909118652344 L 343.7083435058594 340.5909118652344" stroke-linejoin="bevel" stroke-miterlimit="10" stroke-width="2" clip-path="url(#GgzBtMCgKrHx)"/><path fill="none" stroke="black" paint-order="fill" d="M 49.5 355.5 L 970.5 355.5" stroke-linejoin="bevel" stroke-miterlimit="10"/><path fill="none" stroke="black" paint-order="fill" d="M 49.5 361.5 L 49.5 353.5 M 177.5 361.5 L 177.5 353.5 M 305.5 361.5 L 305.5 353.5 M 433.5 361.5 L 433.5 353.5 M 561.5 361.5 L 561.5 353.5 M 689.5 361.5 L 689.5 353.5 M 817.5 361.5 L 817.5 353.5 M 944.5 361.5 L 944.5 353.5" stroke-linejoin="bevel" stroke-miterlimit="10"/><path fill="none" stroke="black" paint-order="fill" d="M 49.5 359.5 L 49.5 355.5 M 75.5 359.5 L 75.5 355.5 M 100.5 359.5 L 100.5 355.5 M 126.5 359.5 L 126.5 355.5 M 151.5 359.5 L 151.5 355.5 M 177.5 359.5 L 177.5 355.5 M 203.5 359.5 L 203.5 355.5 M 228.5 359.5 L 228.5 355.5 M 254.5 359.5 L 254.5 355.5 M 279.5 359.5 L 279.5 355.5 M 305.5 359.5 L 305.5 355.5 M 330.5 359.5 L 330.5 355.5 M 356.5 359.5 L 356.5 355.5 M 382.5 359.5 L 382.5 355.5 M 407.5 359.5 L 407.5 355.5 M 433.5 359.5 L 433.5 355.5 M 458.5 359.5 L 458.5 355.5 M 484.5 359.5 L 484.5 355.5 M 510.5 359.5 L 510.5 355.5 M 535.5 359.5 L 535.5 355.5 M 561.5 359.5 L 561.5 355.5 M 586.5 359.5 L 586.5 355.5 M 612.5 359.5 L 612.5 355.5 M 637.5 359.5 L 637.5 355.5 M 663.5 359.5 L 663.5 355.5 M 689.5 359.5 L 689.5 355.5 M 714.5 359.5 L 714.5 355.5 M 740.5 359.5 L 740.5 355.5 M 765.5 359.5 L 765.5 355.5 M 791.5 359.5 L 791.5 355.5 M 817.5 359.5 L 817.5 355.5 M 842.5 359.5 L 842.5 355.5 M 868.5 359.5 L 868.5 355.5 M 893.5 359.5 L 893.5 355.5 M 919.5 359.5 L 919.5 355.5 M 944.5 359.5 L 944.5 355.5 M 970.5 359.5 L 970.5 355.5" stroke-linejoin="bevel" stroke-miterlimit="10"/><text fill="white" stroke="none" font-family="helvetica" font-size="11px" font-style="normal" font-weight="normal" text-decoration="normal" x="45.941162109375" y="374" text-anchor="start" dominant-baseline="alphabetic" transform="matrix(1, 0, 0, 1, 0.5, 0.5)">0</text><text fill="none" stroke="rgb(0 0 0 / 0)" font-family="helvetica" font-size="11px" font-style="normal" font-weight="normal" text-decoration="normal" x="45.941162109375" y="374" text-anchor="start" dominant-baseline="alphabetic" transform="matrix(1, 0, 0, 1, 0.5, 0.5)" stroke-linejoin="bevel" stroke-miterlimit="10">0</text><text fill="white" stroke="none" font-family="helvetica" font-size="11px" font-style="normal" font-weight="normal" text-decoration="normal" x="170.7989959716797" y="374" text-anchor="start" dominant-baseline="alphabetic" transform="matrix(1, 0, 0, 1, 0.5, 0.5)">10</text><text fill="none" stroke="rgb(0 0 0 / 0)" font-family="helvetica" font-size="11px" font-style="normal" font-weight="normal" text-decoration="normal" x="170.7989959716797" y="374" text-anchor="start" dominant-baseline="alphabetic" transform="matrix(1, 0, 0, 1, 0.5, 0.5)" stroke-linejoin="bevel" stroke-miterlimit="10">10</text><text fill="white" stroke="none" font-family="helvetica" font-size="11px" font-style="normal" font-weight="normal" text-decoration="normal" x="298.7156677246094" y="374" text-anchor="start" dominant-baseline="alphabetic" transform="matrix(1, 0, 0, 1, 0.5, 0.5)">20</text><text fill="none" stroke="rgb(0 0 0 / 0)" font-family="helvetica" font-size="11px" font-style="normal" font-weight="normal" text-decoration="normal" x="298.7156677246094" y="374" text-anchor="start" dominant-baseline="alphabetic" transform="matrix(1, 0, 0, 1, 0.5, 0.5)" stroke-linejoin="bevel" stroke-miterlimit="10">20</text><text fill="white" stroke="none" font-family="helvetica" font-size="11px" font-style="normal" font-weight="normal" text-decoration="normal" x="426.63232421875" y="374" text-anchor="start" dominant-baseline="alphabetic" transform="matrix(1, 0, 0, 1, 0.5, 0.5)">30</text><text fill="none" stroke="rgb(0 0 0 / 0)" font-family="helvetica" font-size="11px" font-style="normal" font-weight="normal" text-decoration="normal" x="426.63232421875" y="374" text-anchor="start" dominant-baseline="alphabetic" transform="matrix(1, 0, 0, 1, 0.5, 0.5)" stroke-linejoin="bevel" stroke-miterlimit="10">30</text><text fill="white" stroke="none" font-family="helvetica" font-size="11px" font-style="normal" font-weight="normal" text-decoration="normal" x="554.5490112304688" y="374" text-anchor="start" dominant-baseline="alphabetic" transform="matrix(1, 0, 0, 1, 0.5, 0.5)">40</text><text fill="none" stroke="rgb(0 0 0 / 0)" font-family="helvetica" font-size="11px" font-style="normal" font-weight="normal" text-decoration="normal" x="554.5490112304688" y="374" text-anchor="start" dominant-baseline="alphabetic" transform="matrix(1, 0, 0, 1, 0.5, 0.5)" stroke-linejoin="bevel" stroke-miterlimit="10">40</text><text fill="white" stroke="none" font-family="helvetica" font-size="11px" font-style="normal" font-weight="normal" text-decoration="normal" x="682.4656372070312" y="374" text-anchor="start" dominant-baseline="alphabetic" transform="matrix(1, 0, 0, 1, 0.5, 0.5)">50</text><text fill="none" stroke="rgb(0 0 0 / 0)" font-family="helvetica" font-size="11px" font-style="normal" font-weight="normal" text-decoration="normal" x="682.4656372070312" y="374" text-anchor="start" dominant-baseline="alphabetic" transform="matrix(1, 0, 0, 1, 0.5, 0.5)" stroke-linejoin="bevel" stroke-miterlimit="10">50</text><text fill="white" stroke="none" font-family="helvetica" font-size="11px" font-style="normal" font-weight="normal" text-decoration="normal" x="810.38232421875" y="374" text-anchor="start" dominant-baseline="alphabetic" transform="matrix(1, 0, 0, 1, 0.5, 0.5)">60</text><text fill="none" stroke="rgb(0 0 0 / 0)" font-family="helvetica" font-size="11px" font-style="normal" font-weight="normal" text-decoration="normal" x="810.38232421875" y="374" text-anchor="start" dominant-baseline="alphabetic" transform="matrix(1, 0, 0, 1, 0.5, 0.5)" stroke-linejoin="bevel" stroke-miterlimit="10">60</text><text fill="white" stroke="none" font-family="helvetica" font-size="11px" font-style="normal" font-weight="normal" text-decoration="normal" x="938.2990112304688" y="374" text-anchor="start" dominant-baseline="alphabetic" transform="matrix(1, 0, 0, 1, 0.5, 0.5)">70</text><text fill="none" stroke="rgb(0 0 0 / 0)" font-family="helvetica" font-size="11px" font-style="normal" font-weight="normal" text-decoration="normal" x="938.2990112304688" y="374" text-anchor="start" dominant-baseline="alphabetic" transform="matrix(1, 0, 0, 1, 0.5, 0.5)" stroke-linejoin="bevel" stroke-miterlimit="10">70</text><text fill="white" stroke="none" font-family="helvetica" font-size="13px" font-style="italic" font-weight="normal" text-decoration="normal" x="495.411376953125" y="394" text-anchor="start" dominant-baseline="alphabetic" transform="matrix(1, 0, 0, 1, 0.5, 0.5)">Hour</text><text fill="none" stroke="rgb(0 0 0 / 0)" font-family="helvetica" font-size="13px" font-style="italic" font-weight="normal" text-decoration="normal" x="495.411376953125" y="394" text-anchor="start" dominant-baseline="alphabetic" transform="matrix(1, 0, 0, 1, 0.5, 0.5)" stroke-linejoin="bevel" stroke-miterlimit="10">Hour</text><path fill="none" stroke="black" paint-order="fill" d="M 49.5 355.5 L 49.5 27.5" stroke-linejoin="bevel" stroke-miterlimit="10"/><path fill="none" stroke="black" paint-order="fill" d="M 43.5 340.5 L 51.5 340.5 M 43.5 297.5 L 51.5 297.5 M 43.5 254.5 L 51.5 254.5 M 43.5 211.5 L 51.5 211.5 M 43.5 167.5 L 51.5 167.5 M 43.5 124.5 L 51.5 124.5 M 43.5 81.5 L 51.5 81.5 M 43.5 38.5 L 51.5 38.5" stroke-linejoin="bevel" stroke-miterlimit="10"/><path fill="none" stroke="black" paint-order="fill" d="M 45.5 349.5 L 49.5 349.5 M 45.5 340.5 L 49.5 340.5 M 45.5 331.5 L 49.5 331.5 M 45.5 323.5 L 49.5 323.5 M 45.5 314.5 L 49.5 314.5 M 45.5 306.5 L 49.5 306.5 M 45.5 297.5 L 49.5 297.5 M 45.5 288.5 L 49.5 288.5 M 45.5 280.5 L 49.5 280.5 M 45.5 271.5 L 49.5 271.5 M 45.5 262.5 L 49.5 262.5 M 45.5 254.5 L 49.5 254.5 M 45.5 245.5 L 49.5 245.5 M 45.5 236.5 L 49.5 236.5 M 45.5 228.5 L 49.5 228.5 M 45.5 219.5 L 49.5 219.5 M 45.5 211.5 L 49.5 211.5 M 45.5 202.5 L 49.5 202.5 M 45.5 193.5 L 49.5 193.5 M 45.5 185.5 L 49.5 185.5 M 45.5 176.5 L 49.5 176.5 M 45.5 167.5 L 49.5 167.5 M 45.5 159.5 L 49.5 159.5 M 45.5 150.5 L 49.5 150.5 M 45.5 142.5 L 49.5 142.5 M 45.5 133.5 L 49.5 133.5 M 45.5 124.5 L 49.5 124.5 M 45.5 116.5 L 49.5 116.5 M 45.5 107.5 L 49.5 107.5 M 45.5 98.5 L 49.5 98.5 M 45.5 90.5 L 49.5 90.5 M 45.5 81.5 L 49.5 81.5 M 45.5 72.5 L 49.5 72.5 M 45.5 64.5 L 49.5 64.5 M 45.5 55.5 L 49.5 55.5 M 45.5 47.5 L 49.5 47.5 M 45.5 38.5 L 49.5 38.5 M 45.5 29.5 L 49.5 29.5" stroke-linejoin="bevel" stroke-miterlimit="10"/><text fill="white" stroke="none" font-family="helvetica" font-size="11px" font-style="normal" font-weight="normal" text-decoration="normal" x="31.88232421875" y="344.0909118652344" text-anchor="start" dominant-baseline="alphabetic" transform="matrix(1, 0, 0, 1, 0.5, 0.5)">0</text><text fill="none" stroke="rgb(0 0 0 / 0)" font-family="helvetica" font-size="11px" font-style="normal" font-weight="normal" text-decoration="normal" x="31.88232421875" y="344.0909118652344" text-anchor="start" dominant-baseline="alphabetic" transform="matrix(1, 0, 0, 1, 0.5, 0.5)" stroke-linejoin="bevel" stroke-miterlimit="10">0</text><text fill="white" stroke="none" font-family="helvetica" font-size="11px" font-style="normal" font-weight="normal" text-decoration="normal" x="31.88232421875" y="300.9232482910156" text-anchor="start" dominant-baseline="alphabetic" transform="matrix(1, 0, 0, 1, 0.5, 0.5)">5</text><text fill="none" stroke="rgb(0 0 0 / 0)" font-family="helvetica" font-size="11px" font-style="normal" font-weight="normal" text-decoration="normal" x="31.88232421875" y="300.9232482910156" text-anchor="start" dominant-baseline="alphabetic" transform="matrix(1, 0, 0, 1, 0.5, 0.5)" stroke-linejoin="bevel" stroke-miterlimit="10">5</text><text fill="white" stroke="none" font-family="helvetica" font-size="11px" font-style="normal" font-weight="normal" text-decoration="normal" x="25.7646484375" y="257.75559997558594" text-anchor="start" dominant-baseline="alphabetic" transform="matrix(1, 0, 0, 1, 0.5, 0.5)">10</text><text fill="none" stroke="rgb(0 0 0 / 0)" font-family="helvetica" font-size="11px" font-style="normal" font-weight="normal" text-decoration="normal" x="25.7646484375" y="257.75559997558594" text-anchor="start" dominant-baseline="alphabetic" transform="matrix(1, 0, 0, 1, 0.5, 0.5)" stroke-linejoin="bevel" stroke-miterlimit="10">10</text><text fill="white" stroke="none" font-family="helvetica" font-size="11px" font-style="normal" font-weight="normal" text-decoration="normal" x="25.7646484375" y="214.5879364013672" text-anchor="start" dominant-baseline="alphabetic" transform="matrix(1, 0, 0, 1, 0.5, 0.5)">15</text><text fill="none" stroke="rgb(0 0 0 / 0)" font-family="helvetica" font-size="11px" font-style="normal" font-weight="normal" text-decoration="normal" x="25.7646484375" y="214.5879364013672" text-anchor="start" dominant-baseline="alphabetic" transform="matrix(1, 0, 0, 1, 0.5, 0.5)" stroke-linejoin="bevel" stroke-miterlimit="10">15</text><text fill="white" stroke="none" font-family="helvetica" font-size="11px" font-style="normal" font-weight="normal" text-decoration="normal" x="25.7646484375" y="171.42027282714844" text-anchor="start" dominant-baseline="alphabetic" transform="matrix(1, 0, 0, 1, 0.5, 0.5)">20</text><text fill="none" stroke="rgb(0 0 0 / 0)" font-family="helvetica" font-size="11px" font-style="normal" font-weight="normal" text-decoration="normal" x="25.7646484375" y="171.42027282714844" text-anchor="start" dominant-baseline="alphabetic" transform="matrix(1, 0, 0, 1, 0.5, 0.5)" stroke-linejoin="bevel" stroke-miterlimit="10">20</text><text fill="white" stroke="none" font-family="helvetica" font-size="11px" font-style="normal" font-weight="normal" text-decoration="normal" x="25.7646484375" y="128.25261688232422" text-anchor="start" dominant-baseline="alphabetic" transform="matrix(1, 0, 0, 1, 0.5, 0.5)">25</text><text fill="none" stroke="rgb(0 0 0 / 0)" font-family="helvetica" font-size="11px" font-style="normal" font-weight="normal" text-decoration="normal" x="25.7646484375" y="128.25261688232422" text-anchor="start" dominant-baseline="alphabetic" transform="matrix(1, 0, 0, 1, 0.5, 0.5)" stroke-linejoin="bevel" stroke-miterlimit="10">25</text><text fill="white" stroke="none" font-family="helvetica" font-size="11px" font-style="normal" font-weight="normal" text-decoration="normal" x="25.7646484375" y="85.0849609375" text-anchor="start" dominant-baseline="alphabetic" transform="matrix(1, 0, 0, 1, 0.5, 0.5)">30</text><text fill="none" stroke="rgb(0 0 0 / 0)" font-family="helvetica" font-size="11px" font-style="normal" font-weight="normal" text-decoration="normal" x="25.7646484375" y="85.0849609375" text-anchor="start" dominant-baseline="alphabetic" transform="matrix(1, 0, 0, 1, 0.5, 0.5)" stroke-linejoin="bevel" stroke-miterlimit="10">30</text><text fill="white" stroke="none" font-family="helvetica" font-size="11px" font-style="normal" font-weight="normal" text-decoration="normal" x="25.7646484375" y="41.917301177978516" text-anchor="start" dominant-baseline="alphabetic" transform="matrix(1, 0, 0, 1, 0.5, 0.5)">35</text><text fill="none" stroke="rgb(0 0 0 / 0)" font-family="helvetica" font-size="11px" font-style="normal" font-weight="normal" text-decoration="normal" x="25.7646484375" y="41.917301177978516" text-anchor="start" dominant-baseline="alphabetic" transform="matrix(1, 0, 0, 1, 0.5, 0.5)" stroke-linejoin="bevel" stroke-miterlimit="10">35</text><text fill="white" stroke="none" font-family="helvetica" font-size="13px" font-style="italic" font-weight="normal" text-decoration="normal" x="4.03466796875" y="188" text-anchor="start" dominant-baseline="alphabetic" transform="matrix(6.123233995736766e-17, -1, 1, 6.123233995736766e-17, -172.7353515625, 209.2646484375)">Prod</text><text fill="none" stroke="rgb(0 0 0 / 0)" font-family="helvetica" font-size="13px" font-style="italic" font-weight="normal" text-decoration="normal" x="4.03466796875" y="188" text-anchor="start" dominant-baseline="alphabetic" transform="matrix(6.123233995736766e-17, -1, 1, 6.123233995736766e-17, -172.7353515625, 209.2646484375)" stroke-linejoin="bevel" stroke-miterlimit="10">Prod</text><text fill="white" stroke="none" font-family="helvetica" font-size="13px" font-style="normal" font-weight="bold" text-decoration="normal" x="0" y="12" text-anchor="start" dominant-baseline="alphabetic" transform="matrix(1, 0, 0, 1, 49.5, 7.5)">3 days PV production</text><text fill="none" stroke="rgb(0 0 0 / 0)" font-family="helvetica" font-size="13px" font-style="normal" font-weight="bold" text-decoration="normal" x="0" y="12" text-anchor="start" dominant-baseline="alphabetic" transform="matrix(1, 0, 0, 1, 49.5, 7.5)" stroke-miterlimit="10" stroke-dasharray="">3 days PV production</text></svg>